<?xml version="1.0" standalone="no"?>
<!DOCTYPE svg PUBLIC "-//W3C//DTD SVG 20010904//EN"
 "http://www.w3.org/TR/2001/REC-SVG-20010904/DTD/svg10.dtd">
<svg version="1.0" xmlns="http://www.w3.org/2000/svg"
 width="512.000000pt" height="512.000000pt" viewBox="0 0 512.000000 512.000000"
 preserveAspectRatio="xMidYMid meet">

<g transform="translate(0.000000,512.000000) scale(0.100000,-0.100000)"
fill="#000000" stroke="none">
<path d="M452 5100 c-109 -29 -187 -74 -272 -160 -87 -86 -131 -163 -160 -276
-20 -76 -20 -118 -20 -2104 0 -1986 0 -2028 20 -2104 29 -113 73 -190 160
-276 86 -87 163 -131 276 -160 76 -20 118 -20 2104 -20 1986 0 2028 0 2104 20
113 29 190 73 276 160 87 86 131 163 160 276 20 76 20 118 20 2104 0 1986 0
2028 -20 2104 -29 113 -73 190 -160 276 -86 87 -163 131 -276 160 -76 20 -117
20 -2108 19 -1967 0 -2033 -1 -2104 -19z m3565 -506 c132 -29 254 -96 356
-192 160 -153 239 -338 239 -562 0 -142 -22 -233 -88 -363 l-47 -92 -1165
-1167 -1166 -1167 600 -3 c537 -3 602 -5 629 -20 40 -22 91 -77 104 -111 29
-76 -2 -175 -72 -231 l-39 -31 -1297 0 -1297 0 -36 24 c-19 13 -46 40 -59 59
l-24 36 -3 455 c-2 251 0 472 3 491 5 30 188 217 1343 1373 735 736 1358 1354
1383 1372 177 132 413 180 636 129z"/>
<path d="M3778 4210 c-112 -19 -145 -44 -420 -317 l-259 -257 268 -268 268
-268 233 233 c128 127 249 254 269 280 102 137 102 316 -1 455 -78 107 -223
164 -358 142z"/>
<path d="M1932 2467 l-882 -882 0 -268 0 -267 268 0 267 0 883 883 882 882
-268 268 -267 267 -883 -883z"/>
</g>
</svg>
